<svg width="186" height="269" viewBox="0 0 186 269" fill="none" xmlns="http://www.w3.org/2000/svg">
<path fill-rule="evenodd" clip-rule="evenodd" d="M41.2717 266.114C28.5095 269.841 16.1012 269.17 9.60236 267.316L10.7001 263.469C16.4263 265.104 28.0639 265.804 40.1502 262.274C52.1669 258.764 64.4724 251.122 71.888 236.214L75.4694 237.995C67.4493 254.119 54.1036 262.365 41.2717 266.114Z" fill="#C5ACC1"/>
<path fill-rule="evenodd" clip-rule="evenodd" d="M71.8366 235.538C71.6511 235.232 71.4246 234.858 71.273 234.558L73.9515 233.207C74.0586 233.419 74.1647 233.592 74.2996 233.812C74.3985 233.974 74.5129 234.16 74.6545 234.406C74.9343 234.892 75.2628 235.527 75.4179 236.262C75.5812 237.036 75.5467 237.892 75.1494 238.775C74.7655 239.629 74.0896 240.404 73.1488 241.133L71.3126 238.76C72.0035 238.225 72.2928 237.813 72.4134 237.545C72.5206 237.306 72.5301 237.107 72.4826 236.882C72.4268 236.617 72.2896 236.311 72.0548 235.903C71.9982 235.805 71.9217 235.679 71.8366 235.538ZM11.1349 264.729C11.2005 264.771 11.3566 264.796 11.5355 264.718L12.7324 267.469C11.9708 267.8 10.6954 268.006 9.52307 267.259C8.31687 266.491 7.70067 265.024 7.60657 263.059L10.6032 262.916C10.6751 264.418 11.1032 264.709 11.1349 264.729Z" fill="#C5ACC1"/>
<path fill-rule="evenodd" clip-rule="evenodd" d="M22.9352 259.874C18.0596 261.357 14.5448 260.54 13.0338 259.408L15.4327 256.207C15.4316 256.206 15.4321 256.206 15.4341 256.208C15.4511 256.218 15.5784 256.297 15.8555 256.39C16.149 256.489 16.5658 256.588 17.1079 256.64C18.1876 256.745 19.7469 256.663 21.7713 256.047L22.9352 259.874Z" fill="#C5ACC1"/>
<path fill-rule="evenodd" clip-rule="evenodd" d="M67.4211 217.709L75.5127 236.307L71.8448 237.902L63.7533 219.305L67.4211 217.709Z" fill="#C5ACC1"/>
<path fill-rule="evenodd" clip-rule="evenodd" d="M3.92619 246.072L12.2874 265.289L8.61949 266.885L0.258301 247.668L3.92619 246.072Z" fill="#C5ACC1"/>
<path fill-rule="evenodd" clip-rule="evenodd" d="M62.6277 222.797C63.3142 221.055 63.2032 219.969 62.9131 219.302C62.623 218.635 61.9034 217.813 60.1613 217.128C58.3987 216.435 55.8816 216.015 52.6635 216.049C46.2445 216.117 37.844 217.982 29.0972 221.788C20.3504 225.593 13.2596 230.469 8.83416 235.119C6.61556 237.45 5.20696 239.578 4.51236 241.34C3.82576 243.081 3.93686 244.168 4.22696 244.835C4.51706 245.502 5.23666 246.324 6.97866 247.009C8.74126 247.701 11.2585 248.121 14.4766 248.087C20.8956 248.019 29.2961 246.154 38.0428 242.349C46.7896 238.543 53.8805 233.668 58.3059 229.018C60.5245 226.687 61.9331 224.559 62.6277 222.797ZM39.6387 246.017C57.8701 238.084 69.9326 225.409 66.5809 217.706C63.2293 210.002 45.7328 210.188 27.5014 218.12C9.26996 226.052 -2.79254 238.727 0.55908 246.431C3.91066 254.134 21.4072 253.949 39.6387 246.017Z" fill="#C5ACC1"/>
<path fill-rule="evenodd" clip-rule="evenodd" d="M29.0811 203.778C16.8151 198.648 7.59125 190.322 3.70593 184.792L6.97885 182.492C10.4023 187.365 19.0081 195.23 30.6245 200.088C42.1739 204.919 56.5469 206.719 71.6895 199.794L73.353 203.432C56.976 210.921 41.414 208.937 29.0811 203.778Z" fill="#837380"/>
<path fill-rule="evenodd" clip-rule="evenodd" d="M72.0745 199.237C72.1229 198.882 72.182 198.449 72.2532 198.12L75.1853 198.755C75.135 198.987 75.1086 199.188 75.075 199.444C75.0503 199.632 75.0218 199.849 74.9772 200.129C74.8891 200.683 74.7448 201.383 74.4033 202.052C74.0435 202.756 73.4781 203.4 72.6136 203.837C71.7781 204.259 70.7649 204.437 69.5755 204.411L69.6405 201.412C70.5139 201.431 70.9983 201.292 71.2607 201.159C71.4941 201.041 71.6271 200.892 71.7317 200.687C71.8545 200.447 71.9406 200.122 72.0145 199.658C72.0323 199.546 72.0523 199.4 72.0745 199.237ZM6.52455 183.745C6.54935 183.819 6.65485 183.936 6.84285 183.988L6.04285 186.88C5.24235 186.658 4.12155 186.016 3.68002 184.698C3.22566 183.342 3.66921 181.814 4.83195 180.228L7.25165 182.001C6.36285 183.214 6.51265 183.709 6.52455 183.745Z" fill="#837380"/>
<path fill-rule="evenodd" clip-rule="evenodd" d="M18.7516 187.394C14.0286 185.48 11.8102 182.634 11.3479 180.803L15.2262 179.824C15.2259 179.822 15.2261 179.823 15.2269 179.825C15.2334 179.844 15.2826 179.985 15.4395 180.232C15.6056 180.493 15.8674 180.832 16.2558 181.214C17.0295 181.975 18.293 182.892 20.2541 183.687L18.7516 187.394Z" fill="#837380"/>
<path fill-rule="evenodd" clip-rule="evenodd" d="M79.8573 182.599L74.4487 202.146L70.5936 201.08L76.0022 181.533L79.8573 182.599Z" fill="#837380"/>
<path fill-rule="evenodd" clip-rule="evenodd" d="M12.6568 164.707L7.06796 184.905L3.21277 183.839L8.80166 163.64L12.6568 164.707Z" fill="#837380"/>
<path fill-rule="evenodd" clip-rule="evenodd" d="M72.9307 183.539C74.5597 182.617 75.1571 181.702 75.351 181.002C75.545 180.301 75.5028 179.209 74.5793 177.581C73.6449 175.934 71.9523 174.024 69.4291 172.026C64.3964 168.041 56.693 164.207 47.4996 161.663C38.3063 159.119 29.7274 158.448 23.3621 159.279C20.1709 159.696 17.7373 160.464 16.0891 161.397C14.46 162.319 13.8626 163.234 13.6687 163.934C13.4748 164.635 13.517 165.727 14.4405 167.355C15.3749 169.003 17.0675 170.912 19.5906 172.91C24.6233 176.895 32.3267 180.73 41.5201 183.273C50.7135 185.817 59.2923 186.488 65.6576 185.657C68.8488 185.24 71.2824 184.472 72.9307 183.539ZM40.4534 187.128C59.6157 192.431 76.9659 190.165 79.2062 182.068C81.4465 173.972 67.7286 163.11 48.5663 157.808C29.4041 152.506 12.0539 154.771 9.8135 162.868C7.5732 170.964 21.2912 181.826 40.4534 187.128Z" fill="#837380"/>
<path fill-rule="evenodd" clip-rule="evenodd" d="M39.4886 143.227C30.0313 133.882 24.5911 122.71 23.0558 116.128L26.9512 115.22C28.304 121.019 33.3437 131.532 42.3001 140.382C51.2049 149.181 63.8617 156.226 80.4951 155.467L80.6775 159.463C62.6882 160.284 48.9975 152.623 39.4886 143.227Z" fill="#483C46"/>
<path fill-rule="evenodd" clip-rule="evenodd" d="M81.0607 155.094C81.2382 154.784 81.4551 154.404 81.6441 154.125L84.1261 155.811C83.9927 156.007 83.8928 156.184 83.7659 156.409C83.6729 156.574 83.5652 156.764 83.4191 157.008C83.1303 157.488 82.7344 158.084 82.1677 158.576C81.5706 159.095 80.8054 159.481 79.8403 159.562C78.9075 159.641 77.9014 159.427 76.808 158.959L77.9899 156.201C78.7929 156.545 79.294 156.598 79.5869 156.573C79.8475 156.551 80.0267 156.462 80.2003 156.311C80.4042 156.134 80.6054 155.866 80.8477 155.462C80.9061 155.365 80.9793 155.237 81.0607 155.094ZM26.0616 116.211C26.0569 116.289 26.1108 116.438 26.2657 116.556L24.4424 118.939C23.7829 118.434 22.9837 117.419 23.067 116.031C23.1528 114.604 24.1355 113.353 25.8072 112.316L27.3881 114.866C26.1102 115.658 26.0639 116.174 26.0616 116.211Z" fill="#483C46"/>
<path fill-rule="evenodd" clip-rule="evenodd" d="M36.0365 124.168C32.3722 120.627 31.3792 117.158 31.6352 115.287L35.5982 115.829C35.5984 115.828 35.5984 115.828 35.5983 115.831C35.5973 115.851 35.59 116 35.6432 116.288C35.6996 116.592 35.8156 117.005 36.033 117.504C36.4662 118.498 37.2949 119.822 38.8164 121.292L36.0365 124.168Z" fill="#483C46"/>
<path fill-rule="evenodd" clip-rule="evenodd" d="M94.5011 142.575L82.1744 158.681L78.998 156.25L91.3246 140.144L94.5011 142.575Z" fill="#483C46"/>
<path fill-rule="evenodd" clip-rule="evenodd" d="M38.8688 99.848L26.1313 116.491L22.9548 114.06L35.6923 97.417L38.8688 99.848Z" fill="#483C46"/>
<path fill-rule="evenodd" clip-rule="evenodd" d="M87.7255 140.856C89.5811 140.61 90.4773 139.985 90.9193 139.408C91.3612 138.83 91.7304 137.802 91.4828 135.947C91.2323 134.07 90.3768 131.665 88.784 128.869C85.6068 123.291 79.8965 116.854 72.3216 111.056C64.7467 105.259 57.0412 101.428 50.827 99.819C47.7116 99.012 45.1673 98.814 43.2898 99.062C41.4342 99.308 40.5381 99.933 40.0961 100.511C39.6541 101.088 39.285 102.116 39.5325 103.972C39.783 105.849 40.6386 108.253 42.2314 111.05C45.4086 116.628 51.1189 123.065 58.6938 128.862C66.2687 134.66 73.9741 138.49 80.1884 140.1C83.3038 140.907 85.8481 141.105 87.7255 140.856ZM56.2627 132.039C72.0515 144.123 88.9899 148.51 94.0961 141.839C99.2011 135.168 90.5414 119.964 74.7527 107.88C58.9639 95.7959 42.0255 91.4082 36.9196 98.079C31.8138 104.751 40.474 119.955 56.2627 132.039Z" fill="#483C46"/>
<path fill-rule="evenodd" clip-rule="evenodd" d="M172.015 86.1293C171.459 84.9812 170.971 83.1981 170.517 80.7764C169.385 74.7374 168.353 70.7093 167.315 68.6953C167.064 68.2092 166.851 67.92 166.696 67.7632C166.677 67.7439 166.659 67.7277 166.644 67.7142C166.531 67.7873 166.3 67.9764 165.948 68.4535C165.31 69.3178 164.553 70.7624 163.672 72.9101C162.8 75.0372 161.837 77.773 160.765 81.1631C158.622 87.9428 156.068 97.254 152.944 109.374C149.825 121.476 147.281 128.837 145.164 132.4C144.628 133.301 144.066 134.053 143.459 134.582C142.854 135.111 142.046 135.546 141.093 135.445C140.144 135.343 139.462 134.753 139.007 134.155C138.548 133.554 138.188 132.781 137.89 131.939C136.715 128.617 136.008 122.676 135.58 115.489C135.148 108.235 134.992 99.513 134.992 90.5C134.992 88.7067 134.826 87.3439 134.564 86.3483C134.298 85.3394 133.96 84.8118 133.697 84.5607C133.48 84.3534 133.282 84.2949 133.025 84.32C132.707 84.3512 132.219 84.5291 131.583 85.0095C130.308 85.9722 128.827 87.856 127.499 90.5335C126.191 93.173 125.083 96.4818 124.479 100.196C124.136 103.555 123.425 107.215 122.238 110.24C121.086 113.175 119.303 115.981 116.527 116.823C113.597 117.712 110.451 116.197 107.188 112.655C103.876 109.06 100.057 102.988 95.6361 93.6415C93.4591 89.0408 91.4622 85.5638 89.6425 83.0268C87.8125 80.4755 86.2191 78.9566 84.8783 78.1706C83.5824 77.4109 82.5803 77.3612 81.7486 77.6425C80.8503 77.9464 79.8965 78.7229 78.9324 80.0984C76.9928 82.8658 75.4266 87.4563 74.2553 92.8008C73.0947 98.097 72.359 103.952 71.9877 109.108L68.9955 108.892C69.3743 103.632 70.1261 97.6284 71.3248 92.1585C72.5129 86.7374 74.1779 81.655 76.4758 78.3765C77.6304 76.7291 79.047 75.3894 80.7873 74.8007C82.5944 74.1895 84.4992 74.4708 86.3955 75.5825C88.2469 76.6678 90.1309 78.5606 92.0802 81.2782C94.0401 84.0101 96.1241 87.6591 98.3471 92.3585C102.726 101.612 106.39 107.361 109.395 110.623C112.449 113.938 114.453 114.317 115.656 113.952C117.014 113.54 118.347 111.944 119.445 109.144C120.503 106.448 121.174 103.061 121.499 99.849L121.504 99.805L121.511 99.761C122.159 95.7427 123.36 92.1293 124.812 89.2009C126.25 86.3002 127.987 83.9653 129.775 82.6154C130.67 81.9397 131.675 81.4379 132.733 81.3343C133.853 81.2247 134.917 81.5763 135.77 82.3924C136.578 83.1647 137.119 84.2738 137.464 85.5834C137.813 86.9061 137.992 88.5433 137.992 90.5C137.992 99.488 138.148 108.143 138.575 115.311C139.006 122.545 139.705 128.074 140.718 130.939C140.967 131.643 141.203 132.087 141.392 132.336C141.403 132.35 141.413 132.363 141.423 132.375C141.443 132.36 141.464 132.342 141.488 132.321C141.754 132.09 142.125 131.641 142.585 130.867C144.452 127.726 146.908 120.774 150.039 108.626C153.165 96.496 155.736 87.1196 157.905 80.2587C158.99 76.8285 159.98 74.0057 160.897 71.7715C161.805 69.5579 162.673 67.8384 163.535 66.6714C164.321 65.6067 165.482 64.4928 167.02 64.6954C167.77 64.7943 168.369 65.1908 168.825 65.65C169.276 66.1043 169.653 66.6853 169.981 67.3203C171.255 69.7906 172.348 74.2626 173.466 80.2235C173.831 82.1689 174.186 83.4947 174.507 84.3339C174.581 84.1679 174.658 83.9802 174.739 83.7697C175.155 82.6822 175.581 81.1644 176.004 79.3047C177.697 71.8614 179.165 59.7701 179.998 50.8604L182.985 51.1396C182.151 60.0632 180.669 72.3219 178.929 79.9702C178.494 81.8835 178.031 83.5599 177.541 84.8416C177.297 85.4805 177.028 86.0665 176.729 86.5492C176.451 86.9966 176.04 87.5304 175.44 87.8355C175.112 88.0021 174.718 88.1045 174.285 88.0678C173.855 88.0314 173.487 87.8668 173.194 87.6587C172.652 87.2738 172.283 86.6854 172.015 86.1293ZM141.275 132.471C141.275 132.471 141.277 132.47 141.283 132.468C141.277 132.471 141.275 132.471 141.275 132.471ZM141.54 132.497C141.544 132.499 141.546 132.501 141.546 132.501C141.546 132.501 141.544 132.5 141.54 132.497ZM166.563 67.6528C166.563 67.6528 166.564 67.6533 166.566 67.6546C166.564 67.6535 166.562 67.6529 166.563 67.6528Z" fill="#483C46"/>
<path fill-rule="evenodd" clip-rule="evenodd" d="M125.566 85.1523C128.865 80.4395 133.02 79.8127 135.417 80.84L135.892 81.0434L136.238 81.4271L134.492 83C136.238 81.4271 136.242 81.4316 136.246 81.4361L136.254 81.4451L136.269 81.4632C136.28 81.4753 136.29 81.4875 136.3 81.4998C136.321 81.5244 136.341 81.5495 136.361 81.5751C136.4 81.6261 136.438 81.6793 136.475 81.7346C136.548 81.8448 136.619 81.9666 136.689 82.1018C136.827 82.3697 136.969 82.7122 137.116 83.1599C137.407 84.0495 137.744 85.4532 138.068 87.7063C138.715 92.2125 139.342 100.339 139.342 115C139.342 121.453 139.746 125.677 140.295 128.345C140.375 128.282 140.456 128.218 140.54 128.152C141.07 127.735 141.628 127.372 142.205 127.138C142.748 126.917 143.607 126.692 144.537 127.006C145.594 127.362 146.146 128.199 146.37 128.905C146.573 129.546 146.552 130.17 146.495 130.624C146.376 131.557 145.999 132.537 145.525 133.365C145.055 134.185 144.349 135.105 143.393 135.723C142.365 136.388 140.858 136.786 139.321 135.974C137.99 135.271 137.145 133.901 136.564 132.39C135.381 129.316 134.642 123.909 134.642 115C134.642 100.437 134.018 92.5628 133.415 88.3752C133.193 86.8262 132.977 85.812 132.808 85.1688C132.051 85.3059 130.805 85.8644 129.417 87.8476L125.566 85.1523ZM141.834 130.015C141.834 130.005 141.835 129.999 141.835 129.999C141.835 129.999 141.835 130.004 141.834 130.015Z" fill="#6FCF97"/>
<path fill-rule="evenodd" clip-rule="evenodd" d="M163.744 64.4375C164.282 63.9804 165.577 63.1651 167.042 63.8981C169.642 65.1976 173.476 69.7311 174.33 78.2661C174.426 79.2267 174.531 80.0523 174.642 80.759C174.921 80.6533 175.296 80.568 175.741 80.6108C176.694 80.7024 177.312 81.3015 177.609 81.8249C177.856 82.2583 177.911 82.6637 177.929 82.839C177.967 83.2189 177.922 83.5663 177.895 83.7466C177.872 83.9001 177.841 84.0661 177.802 84.2389C177.815 84.3199 177.824 84.3999 177.829 84.4784C177.857 84.9254 177.76 85.2871 177.689 85.4956C177.614 85.7187 177.52 85.9088 177.441 86.0522C177.293 86.322 177.104 86.5975 176.903 86.8683C176.56 87.3589 175.788 88.2181 174.501 88.2985C172.999 88.3924 172.041 87.3808 171.569 86.6524C171.074 85.8877 170.71 84.87 170.419 83.6586C170.119 82.4115 169.86 80.7985 169.653 78.7338C169.125 73.4481 167.35 70.5013 166.098 69.1009C165.379 70.4904 164.396 73.0721 163.271 77.5699L158.712 76.43C159.93 71.5557 161.071 68.4996 162.078 66.6512C162.572 65.7439 163.115 64.9723 163.744 64.4375ZM175.13 82.1491C175.131 82.149 175.141 82.149 175.159 82.1499C175.138 82.1497 175.13 82.1493 175.13 82.1491Z" fill="#EB5757"/>
<path fill-rule="evenodd" clip-rule="evenodd" d="M86.3494 74.0998C87.5148 74.2195 88.4579 74.933 89.1018 75.5712C90.0166 76.478 90.9835 77.8604 92.0781 79.6609C94.295 83.3075 97.445 89.3702 102.207 98.729C105.5 105.199 108.008 108.819 109.861 110.775C111.032 112.01 111.82 112.46 112.278 112.621C112.486 112.635 112.695 112.655 112.903 112.68C112.985 112.656 113.082 112.615 113.206 112.546C113.316 112.484 113.428 112.412 113.582 112.309C113.595 112.3 113.609 112.29 113.625 112.28C113.752 112.194 113.968 112.05 114.175 111.935C114.374 111.824 114.9 111.54 115.589 111.52C116.5 111.493 117.269 111.92 117.762 112.538C118.148 113.023 118.316 113.56 118.403 113.895C118.502 114.274 118.569 114.698 118.622 115.14L118.644 115.321L118.637 115.504C118.616 116.082 118.391 116.662 117.956 117.117C117.568 117.523 117.134 117.703 116.867 117.785C116.374 117.937 115.92 117.916 115.73 117.905C115.281 117.879 114.752 117.777 114.359 117.7C114.267 117.682 114.176 117.664 114.086 117.646C113.637 117.557 113.206 117.472 112.798 117.408C110.741 117.446 108.655 116.335 106.45 114.008C104.139 111.569 101.388 107.482 98.019 100.86C93.2276 91.4451 90.1663 85.5635 88.0621 82.1025C86.9962 80.3492 86.2751 79.387 85.7931 78.9093C85.7899 78.9061 85.7867 78.903 85.7836 78.8999L85.193 79.0698L84.2474 78.3277C83.891 78.048 83.1739 77.768 82.2225 78.2105C81.1677 78.7011 79.397 80.278 77.6918 84.8252L73.2911 83.1749C75.1859 78.1221 77.5675 75.192 80.2405 73.9488C82.5821 72.8598 84.7884 73.2295 86.3494 74.0998ZM85.5303 78.6818C85.5301 78.6812 85.5367 78.6849 85.5503 78.6945C85.5372 78.6872 85.5304 78.6824 85.5303 78.6818Z" fill="#F4743B"/>
<path fill-rule="evenodd" clip-rule="evenodd" d="M116.075 70.2742C94.895 67.8284 77.0812 59.6867 68.7927 53.4804L71.1902 50.2786C78.8559 56.0186 95.983 63.9276 116.534 66.3006C137.029 68.6671 160.731 65.5091 181.776 49.4114L184.207 52.5886C162.134 69.4718 137.313 72.7266 116.075 70.2742Z" fill="#5C368E"/>
<path fill-rule="evenodd" clip-rule="evenodd" d="M182.025 47.6252C182.008 47.1335 181.991 46.5891 181.991 46H184.991C184.991 46.5359 185.006 47.0383 185.023 47.5232C185.025 47.5932 185.028 47.6632 185.03 47.7332C185.044 48.1393 185.058 48.5434 185.062 48.9236C185.07 49.8001 185.029 50.7376 184.72 51.6205C184.025 53.6042 182.25 54.6661 179.386 55.4471L178.597 52.5529C181.233 51.8339 181.707 51.1458 181.888 50.6295C182.017 50.2624 182.069 49.7624 182.062 48.9514C182.059 48.6127 182.046 48.2526 182.032 47.8444C182.03 47.7729 182.027 47.6998 182.025 47.6252ZM71.0719 51.9072C71.3508 52.2837 71.9244 52.5 72.4916 52.5V55.5C71.392 55.5 69.7156 55.1163 68.6612 53.6928C67.5467 52.1882 67.5085 50.0594 68.607 47.4231L71.3762 48.5769C70.4747 50.7406 70.8531 51.6118 71.0719 51.9072Z" fill="#5C368E"/>
<path fill-rule="evenodd" clip-rule="evenodd" d="M83.552 48.485C81.421 47.4081 79.975 46.1471 79.2955 45.06L82.6875 42.94C82.8414 43.1862 83.5954 44.0252 85.3561 44.915C87.0624 45.7772 89.6153 46.6336 93.2009 47.011L92.7822 50.989C88.7678 50.5664 85.7374 49.5894 83.552 48.485Z" fill="#5C368E"/>
<path fill-rule="evenodd" clip-rule="evenodd" d="M184.991 21V51H180.991V21H184.991Z" fill="#5C368E"/>
<path fill-rule="evenodd" clip-rule="evenodd" d="M71.9916 22V53H67.9916V22H71.9916Z" fill="#5C368E"/>
<path fill-rule="evenodd" clip-rule="evenodd" d="M177.703 28.2986C180.168 26.0572 180.991 24.0919 180.991 22.5C180.991 20.9081 180.168 18.9428 177.703 16.7014C175.237 14.459 171.446 12.2559 166.421 10.3235C156.399 6.46887 142.283 4 126.491 4C110.7 4 96.5841 6.46887 86.5617 10.3235C81.5374 12.2559 77.7459 14.459 75.2799 16.7014C72.815 18.9428 71.9916 20.9081 71.9916 22.5C71.9916 24.0919 72.815 26.0572 75.2799 28.2986C77.7459 30.541 81.5374 32.7441 86.5617 34.6765C96.5841 38.5311 110.7 41 126.491 41C142.283 41 156.399 38.5311 166.421 34.6765C171.446 32.7441 175.237 30.541 177.703 28.2986ZM126.491 45C158.8 45 184.991 34.9264 184.991 22.5C184.991 10.0736 158.8 0 126.491 0C94.1831 0 67.9916 10.0736 67.9916 22.5C67.9916 34.9264 94.1831 45 126.491 45Z" fill="#5C368E"/>
</svg>
