<svg width="192" height="281" viewBox="0 0 192 281" fill="none" xmlns="http://www.w3.org/2000/svg">
<path fill-rule="evenodd" clip-rule="evenodd" d="M47.4866 268.114C34.7244 271.841 22.3161 271.17 15.8173 269.316L16.915 265.469C22.6412 267.104 34.2788 267.804 46.3651 264.274C58.3818 260.764 70.6873 253.122 78.1029 238.214L81.6843 239.995C73.6642 256.119 60.3185 264.365 47.4866 268.114Z" fill="#C5ACC1"/>
<path fill-rule="evenodd" clip-rule="evenodd" d="M78.0515 237.538C77.866 237.232 77.6395 236.858 77.4879 236.558L80.1664 235.207C80.2735 235.419 80.3796 235.592 80.5145 235.812C80.6134 235.974 80.7278 236.16 80.8694 236.406C81.1492 236.892 81.4777 237.527 81.6328 238.262C81.7961 239.036 81.7616 239.892 81.3643 240.775C80.9804 241.629 80.3045 242.404 79.3637 243.133L77.5275 240.76C78.2184 240.225 78.5077 239.813 78.6283 239.545C78.7355 239.306 78.745 239.107 78.6975 238.882C78.6417 238.617 78.5045 238.311 78.2697 237.903C78.2131 237.805 78.1366 237.679 78.0515 237.538ZM17.3498 266.729C17.4154 266.771 17.5715 266.796 17.7504 266.718L18.9473 269.469C18.1857 269.8 16.9103 270.006 15.738 269.259C14.5318 268.491 13.9156 267.024 13.8215 265.059L16.8181 264.916C16.89 266.418 17.3181 266.709 17.3498 266.729Z" fill="#C5ACC1"/>
<path fill-rule="evenodd" clip-rule="evenodd" d="M29.1501 261.874C24.2745 263.357 20.7597 262.54 19.2487 261.408L21.6476 258.207C21.6465 258.206 21.647 258.206 21.649 258.208C21.666 258.218 21.7933 258.297 22.0704 258.39C22.3639 258.489 22.7807 258.588 23.3228 258.64C24.4025 258.745 25.9618 258.663 27.9862 258.047L29.1501 261.874Z" fill="#C5ACC1"/>
<path fill-rule="evenodd" clip-rule="evenodd" d="M73.636 219.709L81.7276 238.307L78.0597 239.902L69.9682 221.305L73.636 219.709Z" fill="#C5ACC1"/>
<path fill-rule="evenodd" clip-rule="evenodd" d="M10.1411 248.072L18.5023 267.289L14.8344 268.885L6.47321 249.668L10.1411 248.072Z" fill="#C5ACC1"/>
<path fill-rule="evenodd" clip-rule="evenodd" d="M68.8426 224.797C69.5291 223.055 69.4181 221.969 69.128 221.302C68.8379 220.635 68.1183 219.813 66.3762 219.128C64.6136 218.435 62.0965 218.015 58.8784 218.049C52.4594 218.117 44.0589 219.982 35.3121 223.788C26.5653 227.593 19.4745 232.469 15.0491 237.119C12.8305 239.45 11.4219 241.578 10.7273 243.34C10.0407 245.081 10.1518 246.168 10.4419 246.835C10.732 247.502 11.4516 248.324 13.1936 249.009C14.9562 249.701 17.4734 250.121 20.6915 250.087C27.1105 250.019 35.511 248.154 44.2577 244.349C53.0045 240.543 60.0954 235.668 64.5208 231.018C66.7394 228.687 68.148 226.559 68.8426 224.797ZM45.8536 248.017C64.085 240.084 76.1475 227.409 72.7958 219.706C69.4442 212.002 51.9477 212.188 33.7163 220.12C15.4849 228.052 3.4224 240.727 6.77402 248.431C10.1256 256.134 27.6221 255.949 45.8536 248.017Z" fill="#C5ACC1"/>
<path fill-rule="evenodd" clip-rule="evenodd" d="M35.296 205.778C23.03 200.648 13.8062 192.322 9.92088 186.792L13.1938 184.492C16.6172 189.365 25.223 197.23 36.8394 202.088C48.3888 206.919 62.7618 208.719 77.9044 201.794L79.5679 205.432C63.1909 212.921 47.6289 210.937 35.296 205.778Z" fill="#837380"/>
<path fill-rule="evenodd" clip-rule="evenodd" d="M78.2894 201.237C78.3378 200.882 78.3969 200.449 78.4681 200.12L81.4002 200.755C81.3499 200.987 81.3235 201.188 81.2899 201.444C81.2652 201.632 81.2367 201.849 81.1921 202.129C81.104 202.683 80.9597 203.383 80.6182 204.052C80.2584 204.756 79.693 205.4 78.8285 205.837C77.993 206.259 76.9798 206.437 75.7904 206.411L75.8554 203.412C76.7288 203.431 77.2132 203.292 77.4756 203.159C77.709 203.041 77.842 202.892 77.9466 202.687C78.0694 202.447 78.1555 202.122 78.2294 201.658C78.2472 201.546 78.2672 201.4 78.2894 201.237ZM12.7395 185.745C12.7643 185.819 12.8698 185.936 13.0578 185.988L12.2578 188.88C11.4573 188.658 10.3365 188.016 9.89497 186.698C9.44061 185.342 9.88416 183.814 11.0469 182.228L13.4666 184.001C12.5778 185.214 12.7276 185.709 12.7395 185.745Z" fill="#837380"/>
<path fill-rule="evenodd" clip-rule="evenodd" d="M24.9665 189.394C20.2435 187.48 18.0251 184.634 17.5628 182.803L21.4411 181.824C21.4408 181.822 21.441 181.823 21.4418 181.825C21.4483 181.844 21.4975 181.985 21.6544 182.232C21.8205 182.493 22.0823 182.832 22.4707 183.214C23.2444 183.975 24.5079 184.892 26.469 185.687L24.9665 189.394Z" fill="#837380"/>
<path fill-rule="evenodd" clip-rule="evenodd" d="M86.0723 184.599L80.6637 204.146L76.8086 203.08L82.2172 183.533L86.0723 184.599Z" fill="#837380"/>
<path fill-rule="evenodd" clip-rule="evenodd" d="M18.8717 166.707L13.2829 186.905L9.42771 185.839L15.0166 165.64L18.8717 166.707Z" fill="#837380"/>
<path fill-rule="evenodd" clip-rule="evenodd" d="M79.1456 185.539C80.7746 184.617 81.372 183.702 81.5659 183.002C81.7599 182.301 81.7177 181.209 80.7942 179.581C79.8598 177.934 78.1672 176.024 75.644 174.026C70.6113 170.041 62.9079 166.207 53.7145 163.663C44.5212 161.119 35.9423 160.448 29.577 161.279C26.3858 161.696 23.9522 162.464 22.304 163.397C20.6749 164.319 20.0775 165.234 19.8836 165.934C19.6897 166.635 19.7319 167.727 20.6554 169.355C21.5898 171.003 23.2824 172.912 25.8055 174.91C30.8382 178.895 38.5416 182.73 47.735 185.273C56.9284 187.817 65.5072 188.488 71.8725 187.657C75.0637 187.24 77.4973 186.472 79.1456 185.539ZM46.6683 189.128C65.8306 194.431 83.1808 192.165 85.4211 184.068C87.6614 175.972 73.9435 165.11 54.7812 159.808C35.619 154.506 18.2688 156.771 16.0284 164.868C13.7881 172.964 27.5061 183.826 46.6683 189.128Z" fill="#837380"/>
<path fill-rule="evenodd" clip-rule="evenodd" d="M45.7036 145.227C36.2463 135.882 30.8061 124.71 29.2708 118.128L33.1662 117.22C34.519 123.019 39.5587 133.532 48.5151 142.382C57.4199 151.181 70.0767 158.226 86.7101 157.467L86.8924 161.463C68.9031 162.284 55.2125 154.623 45.7036 145.227Z" fill="#483C46"/>
<path fill-rule="evenodd" clip-rule="evenodd" d="M87.2756 157.094C87.4531 156.784 87.67 156.404 87.859 156.125L90.341 157.811C90.2076 158.007 90.1077 158.184 89.9808 158.409C89.8878 158.574 89.7801 158.764 89.634 159.008C89.3452 159.488 88.9493 160.084 88.3826 160.576C87.7855 161.095 87.0203 161.481 86.0552 161.562C85.1224 161.641 84.1163 161.427 83.0229 160.959L84.2048 158.201C85.0078 158.545 85.5089 158.598 85.8018 158.573C86.0624 158.551 86.2416 158.462 86.4152 158.311C86.6191 158.134 86.8203 157.866 87.0626 157.462C87.121 157.365 87.1942 157.237 87.2756 157.094ZM32.2765 118.211C32.2718 118.289 32.3257 118.438 32.4806 118.556L30.6573 120.939C29.9978 120.434 29.1986 119.419 29.2819 118.031C29.3677 116.604 30.3504 115.353 32.0221 114.316L33.603 116.866C32.3251 117.658 32.2788 118.174 32.2765 118.211Z" fill="#483C46"/>
<path fill-rule="evenodd" clip-rule="evenodd" d="M42.2514 126.168C38.5871 122.627 37.5941 119.158 37.8501 117.287L41.8131 117.829C41.8133 117.828 41.8133 117.828 41.8132 117.831C41.8122 117.851 41.8049 118 41.8581 118.288C41.9145 118.592 42.0305 119.005 42.2479 119.504C42.6811 120.498 43.5098 121.822 45.0313 123.292L42.2514 126.168Z" fill="#483C46"/>
<path fill-rule="evenodd" clip-rule="evenodd" d="M100.716 144.575L88.3894 160.681L85.213 158.25L97.5396 142.144L100.716 144.575Z" fill="#483C46"/>
<path fill-rule="evenodd" clip-rule="evenodd" d="M45.0838 102.848L32.3463 119.491L29.1698 117.06L41.9073 100.417L45.0838 102.848Z" fill="#483C46"/>
<path fill-rule="evenodd" clip-rule="evenodd" d="M93.9404 142.856C95.796 142.61 96.6922 141.985 97.1342 141.408C97.5761 140.83 97.9453 139.802 97.6977 137.947C97.4472 136.07 96.5917 133.665 94.9989 130.869C91.8217 125.291 86.1114 118.854 78.5365 113.056C70.9616 107.259 63.2561 103.428 57.0419 101.819C53.9265 101.012 51.3822 100.814 49.5047 101.062C47.6491 101.308 46.753 101.933 46.311 102.511C45.869 103.088 45.4999 104.116 45.7474 105.972C45.9979 107.849 46.8535 110.253 48.4463 113.05C51.6235 118.628 57.3338 125.065 64.9087 130.862C72.4836 136.66 80.189 140.49 86.4033 142.1C89.5187 142.907 92.063 143.105 93.9404 142.856ZM62.4776 134.039C78.2664 146.123 95.2048 150.51 100.311 143.839C105.416 137.168 96.7563 121.964 80.9676 109.88C65.1788 97.7959 48.2404 93.4082 43.1345 100.079C38.0287 106.751 46.6889 121.955 62.4776 134.039Z" fill="#483C46"/>
<path fill-rule="evenodd" clip-rule="evenodd" d="M178.23 88.1293C177.674 86.9812 177.186 85.1981 176.732 82.7764C175.6 76.7374 174.568 72.7093 173.53 70.6953C173.279 70.2092 173.066 69.92 172.911 69.7632C172.892 69.7439 172.874 69.7277 172.859 69.7142C172.746 69.7873 172.515 69.9764 172.163 70.4535C171.525 71.3178 170.768 72.7624 169.887 74.9101C169.015 77.0372 168.052 79.773 166.98 83.1631C164.837 89.9428 162.283 99.254 159.159 111.374C156.04 123.476 153.496 130.837 151.379 134.4C150.843 135.301 150.281 136.053 149.674 136.582C149.069 137.111 148.261 137.546 147.308 137.445C146.359 137.343 145.677 136.753 145.222 136.155C144.763 135.554 144.403 134.781 144.105 133.939C142.93 130.617 142.223 124.676 141.795 117.489C141.363 110.235 141.207 101.513 141.207 92.5C141.207 90.7067 141.041 89.3439 140.779 88.3483C140.513 87.3394 140.175 86.8118 139.912 86.5607C139.695 86.3534 139.497 86.2949 139.24 86.32C138.922 86.3512 138.434 86.5291 137.798 87.0095C136.523 87.9722 135.042 89.856 133.714 92.5335C132.406 95.173 131.298 98.4818 130.694 102.196C130.351 105.555 129.64 109.215 128.453 112.24C127.301 115.175 125.518 117.981 122.742 118.823C119.812 119.712 116.666 118.197 113.403 114.655C110.091 111.06 106.272 104.988 101.851 95.6415C99.674 91.0408 97.6771 87.5638 95.8574 85.0268C94.0274 82.4755 92.434 80.9566 91.0932 80.1706C89.7973 79.4109 88.7952 79.3612 87.9635 79.6425C87.0652 79.9464 86.1114 80.7229 85.1473 82.0984C83.2077 84.8658 81.6415 89.4563 80.4702 94.8008C79.3096 100.097 78.5739 105.952 78.2026 111.108L75.2104 110.892C75.5892 105.632 76.341 99.6284 77.5397 94.1585C78.7278 88.7374 80.3928 83.655 82.6907 80.3765C83.8453 78.7291 85.2619 77.3894 87.0022 76.8007C88.8093 76.1895 90.7141 76.4708 92.6104 77.5825C94.4618 78.6678 96.3458 80.5606 98.2951 83.2782C100.255 86.0101 102.339 89.6591 104.562 94.3585C108.941 103.612 112.605 109.361 115.61 112.623C118.664 115.938 120.668 116.317 121.871 115.952C123.229 115.54 124.562 113.944 125.66 111.144C126.718 108.448 127.389 105.061 127.714 101.849L127.719 101.805L127.726 101.761C128.374 97.7427 129.575 94.1293 131.027 91.2009C132.465 88.3002 134.202 85.9653 135.99 84.6154C136.885 83.9397 137.89 83.4379 138.948 83.3343C140.068 83.2247 141.132 83.5763 141.985 84.3924C142.793 85.1647 143.334 86.2738 143.679 87.5834C144.028 88.9061 144.207 90.5433 144.207 92.5C144.207 101.488 144.363 110.143 144.79 117.311C145.221 124.545 145.92 130.074 146.933 132.939C147.182 133.643 147.418 134.087 147.607 134.336C147.618 134.35 147.628 134.363 147.638 134.375C147.658 134.36 147.679 134.342 147.703 134.321C147.969 134.09 148.34 133.641 148.8 132.867C150.667 129.726 153.123 122.774 156.254 110.626C159.38 98.496 161.951 89.1196 164.12 82.2587C165.205 78.8285 166.195 76.0057 167.112 73.7715C168.02 71.5579 168.888 69.8384 169.75 68.6714C170.536 67.6067 171.697 66.4928 173.235 66.6954C173.985 66.7943 174.584 67.1908 175.04 67.65C175.491 68.1043 175.868 68.6853 176.196 69.3203C177.47 71.7906 178.563 76.2626 179.681 82.2235C180.046 84.1689 180.401 85.4947 180.722 86.3339C180.796 86.1679 180.873 85.9802 180.954 85.7697C181.37 84.6822 181.796 83.1644 182.219 81.3047C183.912 73.8614 185.38 61.7701 186.213 52.8604L189.2 53.1396C188.366 62.0632 186.884 74.3219 185.144 81.9702C184.709 83.8835 184.246 85.5599 183.756 86.8416C183.512 87.4805 183.243 88.0665 182.944 88.5492C182.666 88.9966 182.255 89.5304 181.655 89.8355C181.327 90.0021 180.933 90.1045 180.5 90.0678C180.07 90.0314 179.702 89.8668 179.409 89.6587C178.867 89.2738 178.498 88.6854 178.23 88.1293ZM147.49 134.471C147.49 134.471 147.492 134.47 147.498 134.468C147.492 134.471 147.49 134.471 147.49 134.471ZM147.755 134.497C147.759 134.499 147.761 134.501 147.761 134.501C147.761 134.501 147.759 134.5 147.755 134.497ZM172.778 69.6528C172.778 69.6528 172.779 69.6533 172.781 69.6546C172.779 69.6535 172.777 69.6529 172.778 69.6528Z" fill="#483C46"/>
<path fill-rule="evenodd" clip-rule="evenodd" d="M131.781 87.1523C135.08 82.4395 139.235 81.8127 141.632 82.84L142.107 83.0434L142.453 83.4271L140.707 85C142.453 83.4271 142.457 83.4316 142.461 83.4361L142.469 83.4451L142.484 83.4632C142.495 83.4753 142.505 83.4875 142.515 83.4998C142.536 83.5244 142.556 83.5495 142.576 83.5751C142.615 83.6261 142.653 83.6793 142.69 83.7346C142.763 83.8448 142.834 83.9666 142.904 84.1018C143.042 84.3697 143.184 84.7122 143.331 85.1599C143.622 86.0495 143.959 87.4532 144.283 89.7063C144.93 94.2125 145.557 102.339 145.557 117C145.557 123.453 145.961 127.677 146.51 130.345C146.59 130.282 146.671 130.218 146.755 130.152C147.285 129.735 147.843 129.372 148.42 129.138C148.963 128.917 149.822 128.692 150.752 129.006C151.809 129.362 152.361 130.199 152.585 130.905C152.788 131.546 152.767 132.17 152.71 132.624C152.591 133.557 152.214 134.537 151.74 135.365C151.27 136.185 150.564 137.105 149.608 137.723C148.58 138.388 147.073 138.786 145.536 137.974C144.205 137.271 143.36 135.901 142.779 134.39C141.596 131.316 140.857 125.909 140.857 117C140.857 102.437 140.233 94.5628 139.63 90.3752C139.408 88.8262 139.192 87.812 139.023 87.1688C138.266 87.3059 137.02 87.8644 135.632 89.8476L131.781 87.1523ZM148.049 132.015C148.049 132.005 148.05 131.999 148.05 131.999C148.05 131.999 148.05 132.004 148.049 132.015Z" fill="#6FCF97"/>
<path fill-rule="evenodd" clip-rule="evenodd" d="M169.959 66.4375C170.497 65.9804 171.792 65.1651 173.257 65.8981C175.857 67.1976 179.691 71.7311 180.545 80.2661C180.641 81.2267 180.746 82.0523 180.857 82.759C181.136 82.6533 181.511 82.568 181.956 82.6108C182.909 82.7024 183.527 83.3015 183.824 83.8249C184.071 84.2583 184.126 84.6637 184.144 84.839C184.182 85.2189 184.137 85.5663 184.11 85.7466C184.087 85.9001 184.056 86.0661 184.017 86.2389C184.03 86.3199 184.039 86.3999 184.044 86.4784C184.072 86.9254 183.975 87.2871 183.904 87.4956C183.829 87.7187 183.735 87.9088 183.656 88.0522C183.508 88.322 183.319 88.5975 183.118 88.8683C182.775 89.3589 182.003 90.2181 180.716 90.2985C179.214 90.3924 178.256 89.3808 177.784 88.6524C177.289 87.8877 176.925 86.87 176.634 85.6586C176.334 84.4115 176.075 82.7985 175.868 80.7338C175.34 75.4481 173.565 72.5013 172.313 71.1009C171.594 72.4904 170.611 75.0721 169.486 79.5699L164.927 78.43C166.145 73.5557 167.286 70.4996 168.293 68.6512C168.787 67.7439 169.33 66.9723 169.959 66.4375ZM181.345 84.1491C181.346 84.149 181.356 84.149 181.374 84.1499C181.353 84.1497 181.345 84.1493 181.345 84.1491Z" fill="#EB5757"/>
<path fill-rule="evenodd" clip-rule="evenodd" d="M92.5644 76.0998C93.7298 76.2195 94.6729 76.933 95.3168 77.5712C96.2316 78.478 97.1985 79.8604 98.2931 81.6609C100.51 85.3075 103.66 91.3702 108.422 100.729C111.715 107.199 114.223 110.819 116.076 112.775C117.247 114.01 118.035 114.46 118.493 114.621C118.701 114.635 118.91 114.655 119.118 114.68C119.2 114.656 119.297 114.615 119.421 114.546C119.531 114.484 119.643 114.412 119.797 114.309C119.81 114.3 119.824 114.29 119.84 114.28C119.967 114.194 120.183 114.05 120.39 113.935C120.589 113.824 121.115 113.54 121.804 113.52C122.715 113.493 123.484 113.92 123.977 114.538C124.363 115.023 124.531 115.56 124.618 115.895C124.717 116.274 124.784 116.698 124.837 117.14L124.859 117.321L124.852 117.504C124.831 118.082 124.606 118.662 124.171 119.117C123.783 119.523 123.349 119.703 123.082 119.785C122.589 119.937 122.135 119.916 121.945 119.905C121.496 119.879 120.967 119.777 120.574 119.7C120.482 119.682 120.391 119.664 120.301 119.646C119.852 119.557 119.421 119.472 119.013 119.408C116.956 119.446 114.87 118.335 112.665 116.008C110.354 113.569 107.603 109.482 104.234 102.86C99.4426 93.4451 96.3813 87.5635 94.2771 84.1025C93.2112 82.3492 92.4901 81.387 92.0081 80.9093C92.0049 80.9061 92.0017 80.903 91.9986 80.8999L91.408 81.0698L90.4624 80.3277C90.106 80.048 89.3889 79.768 88.4375 80.2105C87.3827 80.7011 85.612 82.278 83.9068 86.8252L79.5061 85.1749C81.4009 80.1221 83.7825 77.192 86.4555 75.9488C88.7971 74.8598 91.0034 75.2295 92.5644 76.0998ZM91.7453 80.6818C91.7451 80.6812 91.7517 80.6849 91.7653 80.6945C91.7522 80.6872 91.7454 80.6824 91.7453 80.6818Z" fill="#F4743B"/>
<path fill-rule="evenodd" clip-rule="evenodd" d="M122.29 72.2742C101.11 69.8284 83.2962 61.6867 75.0077 55.4804L77.4052 52.2786C85.0709 58.0186 102.198 65.9276 122.749 68.3006C143.244 70.6671 166.946 67.5091 187.991 51.4114L190.422 54.5886C168.349 71.4718 143.528 74.7266 122.29 72.2742Z" fill="black"/>
<path fill-rule="evenodd" clip-rule="evenodd" d="M188.24 49.6252C188.223 49.1335 188.206 48.5891 188.206 48H191.206C191.206 48.5359 191.221 49.0383 191.238 49.5232C191.24 49.5932 191.243 49.6632 191.245 49.7332C191.259 50.1393 191.273 50.5434 191.277 50.9236C191.285 51.8001 191.244 52.7376 190.935 53.6205C190.24 55.6042 188.465 56.6661 185.601 57.4471L184.812 54.5529C187.448 53.8339 187.922 53.1458 188.103 52.6295C188.232 52.2624 188.284 51.7624 188.277 50.9514C188.274 50.6127 188.261 50.2526 188.247 49.8444C188.245 49.7729 188.242 49.6998 188.24 49.6252ZM77.2868 53.9072C77.5657 54.2837 78.1393 54.5 78.7065 54.5V57.5C77.6069 57.5 75.9305 57.1163 74.8761 55.6928C73.7616 54.1882 73.7234 52.0594 74.8219 49.4231L77.5911 50.5769C76.6896 52.7406 77.068 53.6118 77.2868 53.9072Z" fill="black"/>
<path fill-rule="evenodd" clip-rule="evenodd" d="M89.7669 50.485C87.6359 49.4081 86.1899 48.1471 85.5104 47.06L88.9024 44.94C89.0563 45.1862 89.8103 46.0252 91.571 46.915C93.2773 47.7772 95.8302 48.6336 99.4158 49.011L98.9971 52.989C94.9827 52.5664 91.9523 51.5894 89.7669 50.485Z" fill="black"/>
<path fill-rule="evenodd" clip-rule="evenodd" d="M191.206 23V53H187.206V23H191.206Z" fill="black"/>
<path fill-rule="evenodd" clip-rule="evenodd" d="M78.2065 24V55H74.2065V24H78.2065Z" fill="black"/>
<path fill-rule="evenodd" clip-rule="evenodd" d="M183.918 28.2986C186.383 26.0572 187.206 24.0919 187.206 22.5C187.206 20.9081 186.383 18.9428 183.918 16.7014C181.452 14.459 177.661 12.2559 172.636 10.3235C162.614 6.46887 148.498 4 132.706 4C116.915 4 102.799 6.46887 92.7766 10.3235C87.7523 12.2559 83.9608 14.459 81.4948 16.7014C79.0299 18.9428 78.2065 20.9081 78.2065 22.5C78.2065 24.0919 79.0299 26.0572 81.4948 28.2986C83.9608 30.541 87.7523 32.7441 92.7766 34.6765C102.799 38.5311 116.915 41 132.706 41C148.498 41 162.614 38.5311 172.636 34.6765C177.661 32.7441 181.452 30.541 183.918 28.2986ZM132.706 45C165.015 45 191.206 34.9264 191.206 22.5C191.206 10.0736 165.015 0 132.706 0C100.398 0 74.2065 10.0736 74.2065 22.5C74.2065 34.9264 100.398 45 132.706 45Z" fill="black"/>
</svg>
